<mxfile host="Electron" modified="2024-09-27T20:32:45.815Z" agent="Mozilla/5.0 (Windows NT 10.0; Win64; x64) AppleWebKit/537.36 (KHTML, like Gecko) draw.io/22.1.16 Chrome/120.0.6099.109 Electron/28.1.0 Safari/537.36" etag="Z58G_f7Oy7Q-MCUYP4-Z" version="22.1.16" type="device">
  <diagram name="Page-1" id="AzJHo57NSov567J8vjZq">
    <mxGraphModel dx="627" dy="217" grid="1" gridSize="10" guides="1" tooltips="1" connect="1" arrows="1" fold="1" page="1" pageScale="1" pageWidth="500" pageHeight="160" math="0" shadow="0">
      <root>
        <mxCell id="0" />
        <mxCell id="1" parent="0" />
        <mxCell id="K0lndk3c3T9sGNKvP9zY-1" value="" style="ellipse;whiteSpace=wrap;html=1;aspect=fixed;" vertex="1" parent="1">
          <mxGeometry x="150" y="400" width="20" height="20" as="geometry" />
        </mxCell>
        <mxCell id="K0lndk3c3T9sGNKvP9zY-2" value="" style="ellipse;whiteSpace=wrap;html=1;aspect=fixed;" vertex="1" parent="1">
          <mxGeometry x="150" y="355" width="20" height="20" as="geometry" />
        </mxCell>
        <mxCell id="K0lndk3c3T9sGNKvP9zY-3" value="" style="ellipse;whiteSpace=wrap;html=1;aspect=fixed;" vertex="1" parent="1">
          <mxGeometry x="200" y="375" width="20" height="20" as="geometry" />
        </mxCell>
        <mxCell id="K0lndk3c3T9sGNKvP9zY-4" value="" style="ellipse;whiteSpace=wrap;html=1;aspect=fixed;" vertex="1" parent="1">
          <mxGeometry x="240" y="365" width="20" height="20" as="geometry" />
        </mxCell>
        <mxCell id="K0lndk3c3T9sGNKvP9zY-5" value="" style="ellipse;whiteSpace=wrap;html=1;aspect=fixed;" vertex="1" parent="1">
          <mxGeometry x="240" y="400" width="20" height="20" as="geometry" />
        </mxCell>
        <mxCell id="K0lndk3c3T9sGNKvP9zY-6" value="" style="ellipse;whiteSpace=wrap;html=1;aspect=fixed;" vertex="1" parent="1">
          <mxGeometry x="210" y="410" width="20" height="20" as="geometry" />
        </mxCell>
        <mxCell id="K0lndk3c3T9sGNKvP9zY-7" value="" style="ellipse;whiteSpace=wrap;html=1;aspect=fixed;" vertex="1" parent="1">
          <mxGeometry x="100" y="375" width="20" height="20" as="geometry" />
        </mxCell>
        <mxCell id="K0lndk3c3T9sGNKvP9zY-8" value="" style="ellipse;whiteSpace=wrap;html=1;aspect=fixed;" vertex="1" parent="1">
          <mxGeometry x="70" y="335" width="20" height="20" as="geometry" />
        </mxCell>
        <mxCell id="K0lndk3c3T9sGNKvP9zY-9" value="" style="ellipse;whiteSpace=wrap;html=1;aspect=fixed;" vertex="1" parent="1">
          <mxGeometry x="50" y="375" width="20" height="20" as="geometry" />
        </mxCell>
        <mxCell id="K0lndk3c3T9sGNKvP9zY-10" value="" style="endArrow=none;html=1;rounded=0;" edge="1" parent="1" source="K0lndk3c3T9sGNKvP9zY-7" target="K0lndk3c3T9sGNKvP9zY-2">
          <mxGeometry width="50" height="50" relative="1" as="geometry">
            <mxPoint x="150" y="455" as="sourcePoint" />
            <mxPoint x="200" y="405" as="targetPoint" />
          </mxGeometry>
        </mxCell>
        <mxCell id="K0lndk3c3T9sGNKvP9zY-11" value="" style="endArrow=none;html=1;rounded=0;" edge="1" parent="1" source="K0lndk3c3T9sGNKvP9zY-7" target="K0lndk3c3T9sGNKvP9zY-8">
          <mxGeometry width="50" height="50" relative="1" as="geometry">
            <mxPoint x="150" y="455" as="sourcePoint" />
            <mxPoint x="200" y="405" as="targetPoint" />
          </mxGeometry>
        </mxCell>
        <mxCell id="K0lndk3c3T9sGNKvP9zY-13" value="" style="endArrow=none;html=1;rounded=0;" edge="1" parent="1" source="K0lndk3c3T9sGNKvP9zY-9" target="K0lndk3c3T9sGNKvP9zY-7">
          <mxGeometry width="50" height="50" relative="1" as="geometry">
            <mxPoint x="150" y="455" as="sourcePoint" />
            <mxPoint x="200" y="405" as="targetPoint" />
          </mxGeometry>
        </mxCell>
        <mxCell id="K0lndk3c3T9sGNKvP9zY-14" value="" style="endArrow=none;html=1;rounded=0;" edge="1" parent="1" source="K0lndk3c3T9sGNKvP9zY-1" target="K0lndk3c3T9sGNKvP9zY-7">
          <mxGeometry width="50" height="50" relative="1" as="geometry">
            <mxPoint x="150" y="455" as="sourcePoint" />
            <mxPoint x="200" y="405" as="targetPoint" />
          </mxGeometry>
        </mxCell>
        <mxCell id="K0lndk3c3T9sGNKvP9zY-15" value="" style="endArrow=none;html=1;rounded=0;" edge="1" parent="1" source="K0lndk3c3T9sGNKvP9zY-3" target="K0lndk3c3T9sGNKvP9zY-1">
          <mxGeometry width="50" height="50" relative="1" as="geometry">
            <mxPoint x="150" y="455" as="sourcePoint" />
            <mxPoint x="200" y="405" as="targetPoint" />
          </mxGeometry>
        </mxCell>
        <mxCell id="K0lndk3c3T9sGNKvP9zY-16" value="" style="endArrow=none;html=1;rounded=0;" edge="1" parent="1" source="K0lndk3c3T9sGNKvP9zY-3" target="K0lndk3c3T9sGNKvP9zY-4">
          <mxGeometry width="50" height="50" relative="1" as="geometry">
            <mxPoint x="150" y="455" as="sourcePoint" />
            <mxPoint x="200" y="405" as="targetPoint" />
          </mxGeometry>
        </mxCell>
        <mxCell id="K0lndk3c3T9sGNKvP9zY-17" value="" style="endArrow=none;html=1;rounded=0;" edge="1" parent="1" source="K0lndk3c3T9sGNKvP9zY-6" target="K0lndk3c3T9sGNKvP9zY-3">
          <mxGeometry width="50" height="50" relative="1" as="geometry">
            <mxPoint x="150" y="455" as="sourcePoint" />
            <mxPoint x="200" y="405" as="targetPoint" />
          </mxGeometry>
        </mxCell>
        <mxCell id="K0lndk3c3T9sGNKvP9zY-18" value="" style="endArrow=none;html=1;rounded=0;" edge="1" parent="1" source="K0lndk3c3T9sGNKvP9zY-5" target="K0lndk3c3T9sGNKvP9zY-4">
          <mxGeometry width="50" height="50" relative="1" as="geometry">
            <mxPoint x="150" y="455" as="sourcePoint" />
            <mxPoint x="200" y="405" as="targetPoint" />
          </mxGeometry>
        </mxCell>
        <mxCell id="K0lndk3c3T9sGNKvP9zY-19" value="" style="ellipse;whiteSpace=wrap;html=1;aspect=fixed;" vertex="1" parent="1">
          <mxGeometry x="90" y="430" width="20" height="20" as="geometry" />
        </mxCell>
        <mxCell id="K0lndk3c3T9sGNKvP9zY-20" value="" style="ellipse;whiteSpace=wrap;html=1;aspect=fixed;" vertex="1" parent="1">
          <mxGeometry x="150" y="445" width="20" height="20" as="geometry" />
        </mxCell>
        <mxCell id="K0lndk3c3T9sGNKvP9zY-21" value="" style="ellipse;whiteSpace=wrap;html=1;aspect=fixed;" vertex="1" parent="1">
          <mxGeometry x="300" y="365" width="20" height="20" as="geometry" />
        </mxCell>
        <mxCell id="K0lndk3c3T9sGNKvP9zY-22" value="" style="ellipse;whiteSpace=wrap;html=1;aspect=fixed;" vertex="1" parent="1">
          <mxGeometry x="310" y="400" width="20" height="20" as="geometry" />
        </mxCell>
        <mxCell id="K0lndk3c3T9sGNKvP9zY-23" value="" style="ellipse;whiteSpace=wrap;html=1;aspect=fixed;" vertex="1" parent="1">
          <mxGeometry x="340" y="375" width="20" height="20" as="geometry" />
        </mxCell>
        <mxCell id="K0lndk3c3T9sGNKvP9zY-24" value="" style="ellipse;whiteSpace=wrap;html=1;aspect=fixed;" vertex="1" parent="1">
          <mxGeometry x="330" y="335" width="20" height="20" as="geometry" />
        </mxCell>
        <mxCell id="K0lndk3c3T9sGNKvP9zY-25" value="" style="ellipse;whiteSpace=wrap;html=1;aspect=fixed;" vertex="1" parent="1">
          <mxGeometry x="370" y="390" width="20" height="20" as="geometry" />
        </mxCell>
        <mxCell id="K0lndk3c3T9sGNKvP9zY-26" value="" style="ellipse;whiteSpace=wrap;html=1;aspect=fixed;" vertex="1" parent="1">
          <mxGeometry x="400" y="410" width="20" height="20" as="geometry" />
        </mxCell>
        <mxCell id="K0lndk3c3T9sGNKvP9zY-27" value="" style="ellipse;whiteSpace=wrap;html=1;aspect=fixed;" vertex="1" parent="1">
          <mxGeometry x="430" y="395" width="20" height="20" as="geometry" />
        </mxCell>
        <mxCell id="K0lndk3c3T9sGNKvP9zY-28" value="" style="ellipse;whiteSpace=wrap;html=1;aspect=fixed;" vertex="1" parent="1">
          <mxGeometry x="420" y="445" width="20" height="20" as="geometry" />
        </mxCell>
        <mxCell id="K0lndk3c3T9sGNKvP9zY-29" value="" style="endArrow=none;html=1;rounded=0;" edge="1" parent="1" source="K0lndk3c3T9sGNKvP9zY-19" target="K0lndk3c3T9sGNKvP9zY-20">
          <mxGeometry width="50" height="50" relative="1" as="geometry">
            <mxPoint x="220" y="465" as="sourcePoint" />
            <mxPoint x="270" y="415" as="targetPoint" />
          </mxGeometry>
        </mxCell>
        <mxCell id="K0lndk3c3T9sGNKvP9zY-30" value="" style="endArrow=none;html=1;rounded=0;" edge="1" parent="1" source="K0lndk3c3T9sGNKvP9zY-23" target="K0lndk3c3T9sGNKvP9zY-21">
          <mxGeometry width="50" height="50" relative="1" as="geometry">
            <mxPoint x="220" y="465" as="sourcePoint" />
            <mxPoint x="270" y="415" as="targetPoint" />
          </mxGeometry>
        </mxCell>
        <mxCell id="K0lndk3c3T9sGNKvP9zY-31" value="" style="endArrow=none;html=1;rounded=0;" edge="1" parent="1" source="K0lndk3c3T9sGNKvP9zY-22" target="K0lndk3c3T9sGNKvP9zY-23">
          <mxGeometry width="50" height="50" relative="1" as="geometry">
            <mxPoint x="220" y="465" as="sourcePoint" />
            <mxPoint x="270" y="415" as="targetPoint" />
          </mxGeometry>
        </mxCell>
        <mxCell id="K0lndk3c3T9sGNKvP9zY-32" value="" style="endArrow=none;html=1;rounded=0;" edge="1" parent="1" source="K0lndk3c3T9sGNKvP9zY-23" target="K0lndk3c3T9sGNKvP9zY-24">
          <mxGeometry width="50" height="50" relative="1" as="geometry">
            <mxPoint x="220" y="465" as="sourcePoint" />
            <mxPoint x="270" y="415" as="targetPoint" />
          </mxGeometry>
        </mxCell>
        <mxCell id="K0lndk3c3T9sGNKvP9zY-33" value="" style="endArrow=none;html=1;rounded=0;" edge="1" parent="1" source="K0lndk3c3T9sGNKvP9zY-23" target="K0lndk3c3T9sGNKvP9zY-25">
          <mxGeometry width="50" height="50" relative="1" as="geometry">
            <mxPoint x="220" y="465" as="sourcePoint" />
            <mxPoint x="270" y="415" as="targetPoint" />
          </mxGeometry>
        </mxCell>
        <mxCell id="K0lndk3c3T9sGNKvP9zY-34" value="" style="endArrow=none;html=1;rounded=0;" edge="1" parent="1" source="K0lndk3c3T9sGNKvP9zY-25" target="K0lndk3c3T9sGNKvP9zY-26">
          <mxGeometry width="50" height="50" relative="1" as="geometry">
            <mxPoint x="220" y="465" as="sourcePoint" />
            <mxPoint x="270" y="415" as="targetPoint" />
          </mxGeometry>
        </mxCell>
        <mxCell id="K0lndk3c3T9sGNKvP9zY-35" value="" style="endArrow=none;html=1;rounded=0;" edge="1" parent="1" source="K0lndk3c3T9sGNKvP9zY-26" target="K0lndk3c3T9sGNKvP9zY-27">
          <mxGeometry width="50" height="50" relative="1" as="geometry">
            <mxPoint x="220" y="465" as="sourcePoint" />
            <mxPoint x="270" y="415" as="targetPoint" />
          </mxGeometry>
        </mxCell>
        <mxCell id="K0lndk3c3T9sGNKvP9zY-36" value="" style="endArrow=none;html=1;rounded=0;" edge="1" parent="1" source="K0lndk3c3T9sGNKvP9zY-26" target="K0lndk3c3T9sGNKvP9zY-28">
          <mxGeometry width="50" height="50" relative="1" as="geometry">
            <mxPoint x="220" y="465" as="sourcePoint" />
            <mxPoint x="270" y="415" as="targetPoint" />
          </mxGeometry>
        </mxCell>
      </root>
    </mxGraphModel>
  </diagram>
</mxfile>
